name GIL04_xslow1Moments.mot
datacolumns 7
datarows 33
range 1.15833330 1.42500007
endheader

                time	          RHipMoment	          LHipMoment	         RKneeMoment	         LKneeMoment	        RAnkleMoment	        LAnkleMoment	
          1.15833330	       -213.94538879	        287.25430298	        130.33299255	       -117.79391479	        212.75631714	       -208.95597839	
          1.16666675	       -209.42639160	        286.52374268	        130.10250854	       -117.92960358	        190.57194519	       -214.31007385	
          1.17499995	       -203.33691406	        289.31567383	        127.65792847	       -119.74685669	        169.07110596	       -218.90078735	
          1.18333340	       -200.30538940	        293.19015503	        125.69103241	       -121.56982422	        147.56813049	       -223.03669739	
          1.19166672	       -199.72554016	        296.42300415	        124.50422668	       -123.00636292	        127.09738922	       -225.26173401	
          1.20000005	       -192.43785095	        291.36849976	        117.42633820	       -118.50730896	        108.54858398	       -227.81071472	
          1.20833337	       -181.67189026	        286.54714966	        106.49153137	       -112.82692719	         92.57541656	       -229.61111450	
          1.21666670	       -167.63221741	        285.73989868	         92.27649689	       -107.85250854	         76.89721680	       -230.24647522	
          1.22500002	       -150.77882385	        293.70022583	         75.81070709	       -105.72492218	         62.90462112	       -230.56993103	
          1.23333335	       -139.04701233	        297.08947754	         63.17428207	        -99.09310913	         48.53413391	       -231.57772827	
          1.24166667	       -126.39537811	        297.35198975	         50.95534897	        -89.31418610	         36.12948227	       -232.39779663	
          1.25000000	       -118.77478027	        298.77725220	         43.63595581	        -78.68892670	         22.94964981	       -233.39796448	
          1.25833344	       -111.99909973	        302.99209595	         38.88457108	        -70.42813873	         10.66769505	       -230.26406860	
          1.26666665	       -106.19995880	        295.79980469	         35.19944382	        -58.71834564	         -0.98992407	       -220.75856018	
          1.27500010	       -113.78846741	        272.52746582	         39.05680084	        -40.56147003	        -14.42861366	       -209.29525757	
          1.28333330	       -126.67346954	        256.72906494	         44.14113617	        -29.31562805	        -26.39115906	       -194.04788208	
          1.29166675	       -132.50953674	        248.19201660	         46.28834152	        -23.02516365	        -33.46073151	       -178.44116211	
          1.29999995	        -64.28446198	        226.40695190	         -1.51807809	        -10.63161850	        -26.81816673	       -164.05325317	
          1.30833340	        -75.41018677	        212.15596008	          7.07421970	         -4.04471350	        -26.76053429	       -150.40826416	
          1.31666672	        -84.21655273	        187.97900391	         14.74171734	          5.67356014	        -25.04653358	       -138.03240967	
          1.32500005	        -89.65518951	        173.05821228	         21.25717163	          8.57145214	        -21.93681717	       -125.63017273	
          1.33333337	        -91.61734009	        156.28146362	         26.54364586	          9.49168968	        -17.93121338	       -111.21294403	
          1.34166670	        -91.08128357	        144.79953003	         30.52330017	          5.64992189	        -13.66137791	        -95.93152618	
          1.35000002	        -88.96503448	        135.14614868	         32.96517181	          0.45696104	         -9.74709129	        -81.49463654	
          1.35833335	        -86.04679108	        127.03652954	         33.49783707	         -5.37080002	         -6.66183043	        -67.49802399	
          1.36666667	        -82.31648254	        118.74589539	         31.82953072	        -10.83256245	         -4.64844942	        -52.65499496	
          1.37500000	        -78.09713745	        117.45629883	         28.02239037	        -20.58886909	         -3.70550537	        -34.69268036	
          1.38333333	        -73.71018982	        113.93640137	         22.56713486	        -27.48645592	         -3.63376045	        -17.17667389	
          1.39166665	        -69.98292542	        104.95330048	         16.25545120	        -30.65680122	         -4.12398815	          1.37999117	
          1.39999998	        -67.28479004	         94.68882751	          9.96224403	        -32.15448761	         -4.85147619	         19.99256706	
          1.40833342	        -67.06858063	         89.99697876	          4.45081949	        -36.19543076	         -5.55829716	         39.79779434	
          1.41666675	        -69.54216003	         85.02671051	          0.16554949	        -39.29093552	         -6.09827185	         59.07225418	
          1.42500007	        -74.65530396	         82.26451874	         -2.89094853	        -43.94575500	         -6.43964911	         79.80892181	
